<svg width="465" height="326" viewBox="0 0 465 326" fill="none" xmlns="http://www.w3.org/2000/svg">
<path d="M249.871 169.147C249.871 139.451 288.447 142.683 297.839 165.819C249.871 72.5232 328.399 61.0192 328.239 0.0111762C344.367 -0.484824 360.367 15.5312 344.367 47.5312C357.759 51.3232 358.927 44.2032 366.031 39.0352C380.271 56.4592 365.871 67.5152 355.791 79.5152L379.903 77.7552C389.487 87.7072 384.015 99.7392 376.383 111.515C416.991 95.5792 425.599 50.8432 440.383 15.5152C467.135 41.6592 477.711 88.5392 440.383 111.515L458.399 122.923C454.207 140.523 441.759 145.691 424.367 143.515L443.119 160.219C439.695 169.659 427.407 180.971 408.367 175.515L427.823 195.755C424.271 208.987 407.775 213.739 392.367 207.515L407.375 224.267C392.783 246.091 379.935 234.267 360.367 239.515C380.271 268.315 412.735 266.075 449.871 257.755C441.935 297.723 395.631 323.195 367.151 325.275L359.711 282.843C320.831 279.051 283.711 270.603 271.679 195.515C265.247 185.547 253.263 183.675 240.751 183.675L249.871 169.147ZM214.703 169.147C214.703 139.451 176.127 142.683 166.735 165.819C214.703 72.5232 136.175 61.0192 136.335 0.0111762C120.207 -0.484824 104.207 15.5312 120.207 47.5312C106.815 51.3232 105.647 44.2032 98.5435 39.0352C84.3035 56.4592 98.7035 67.5152 108.783 79.5152L84.6715 77.7552C75.0875 87.7072 80.5595 99.7392 88.1915 111.515C47.5835 95.5792 38.9755 50.8432 24.1915 15.5152C-2.56052 41.6592 -13.1365 88.5392 24.1915 111.515L6.17548 122.923C10.3675 140.523 22.8155 145.691 40.2075 143.515L21.4555 160.219C24.8795 169.659 37.1675 180.971 56.2075 175.515L36.7515 195.755C40.3035 208.987 56.7995 213.739 72.2075 207.515L57.1995 224.267C71.7915 246.091 84.6395 234.267 104.207 239.515C84.3035 268.315 51.8395 266.075 14.7035 257.755C22.6395 297.723 68.9435 323.195 97.4235 325.275L104.863 282.843C143.743 279.051 180.863 270.603 192.895 195.515C199.327 185.547 212.063 184.187 224.575 184.187L214.703 169.147Z" fill="#FF819A"/>
</svg>
